<svg id="svg" version="1.1" xmlns="http://www.w3.org/2000/svg" xmlns:xlink="http://www.w3.org/1999/xlink" width="400" height="474.0740740740741" viewBox="0, 0, 400,474.0740740740741"><g id="svgg"><path id="path0" d="M289.947 123.122 C 289.877 123.234,290.080 123.376,290.398 123.437 C 290.866 123.527,290.926 123.487,290.714 123.232 C 290.413 122.869,290.129 122.828,289.947 123.122 M89.002 181.713 C 89.002 208.258,89.029 219.117,89.062 205.845 C 89.096 192.572,89.096 170.854,89.062 157.581 C 89.029 144.308,89.002 155.168,89.002 181.713 M310.986 143.981 C 310.986 149.520,311.016 151.785,311.053 149.016 C 311.090 146.247,311.090 141.716,311.053 138.947 C 311.016 136.178,310.986 138.443,310.986 143.981 M151.357 146.514 C 151.657 146.776,152.013 146.991,152.148 146.991 C 152.432 146.991,152.419 146.979,151.505 146.444 L 150.810 146.037 151.357 146.514 M273.206 172.250 C 272.792 172.369,272.454 172.589,272.454 172.738 C 272.454 172.942,272.523 172.940,272.731 172.731 C 272.884 172.579,273.249 172.454,273.542 172.454 C 273.834 172.454,274.074 172.350,274.074 172.222 C 274.074 172.095,274.048 172.000,274.016 172.012 C 273.984 172.023,273.620 172.130,273.206 172.250 M125.463 172.884 C 125.463 173.447,125.475 173.452,125.803 173.019 C 126.238 172.444,126.239 172.299,125.810 172.299 C 125.593 172.299,125.463 172.519,125.463 172.884 M275.111 193.403 C 275.111 204.225,275.139 208.618,275.174 203.166 C 275.208 197.713,275.208 188.859,275.174 183.490 C 275.139 178.120,275.111 182.581,275.111 193.403 M201.206 180.498 C 201.254 186.935,201.334 186.200,201.445 178.298 C 201.478 175.975,201.427 174.074,201.331 174.074 C 201.236 174.074,201.179 176.965,201.206 180.498 M127.829 179.225 L 127.880 182.755 127.951 179.335 L 128.022 175.916 128.536 176.165 C 129.032 176.405,129.034 176.401,128.602 176.054 C 127.822 175.430,127.777 175.616,127.829 179.225 M235.539 193.705 C 235.479 193.765,235.482 193.900,235.546 194.004 C 235.679 194.219,236.343 194.019,236.343 193.764 C 236.343 193.578,235.712 193.532,235.539 193.705 M234.683 197.891 C 234.641 198.768,234.672 199.784,234.753 200.148 C 234.833 200.512,234.911 199.795,234.926 198.553 C 234.958 195.960,234.797 195.523,234.683 197.891 M165.014 197.208 C 165.315 197.471,165.671 197.685,165.805 197.685 C 166.090 197.685,166.076 197.674,165.162 197.138 L 164.468 196.732 165.014 197.208 M237.318 199.479 L 237.367 202.199 237.441 199.689 C 237.507 197.497,237.563 197.197,237.888 197.322 C 238.198 197.441,238.211 197.406,237.967 197.112 C 237.381 196.405,237.269 196.811,237.318 199.479 M307.105 197.572 C 306.894 198.016,306.800 198.380,306.897 198.380 C 307.079 198.380,307.687 196.962,307.561 196.835 C 307.522 196.797,307.317 197.128,307.105 197.572 M309.562 198.380 C 309.417 198.762,309.340 199.074,309.389 199.074 C 309.438 199.074,309.640 198.762,309.838 198.380 C 310.035 197.998,310.113 197.685,310.010 197.685 C 309.908 197.685,309.706 197.998,309.562 198.380 M171.033 200.681 C 171.333 200.943,171.689 201.157,171.823 201.157 C 172.108 201.157,172.095 201.146,171.181 200.611 L 170.486 200.204 171.033 200.681 M305.367 201.272 C 305.221 201.591,305.192 201.852,305.302 201.852 C 305.494 201.852,305.841 200.902,305.700 200.761 C 305.662 200.724,305.512 200.953,305.367 201.272 M308.022 201.668 C 307.834 202.387,307.978 202.424,308.291 201.737 C 308.436 201.418,308.465 201.157,308.355 201.157 C 308.246 201.157,308.096 201.387,308.022 201.668 M237.338 204.398 C 237.338 205.098,237.381 205.385,237.434 205.035 C 237.487 204.685,237.487 204.112,237.434 203.762 C 237.381 203.411,237.338 203.698,237.338 204.398 M303.746 204.744 C 303.601 205.063,303.572 205.324,303.682 205.324 C 303.874 205.324,304.220 204.375,304.079 204.234 C 304.041 204.196,303.892 204.426,303.746 204.744 M306.402 205.140 C 306.214 205.860,306.357 205.896,306.670 205.209 C 306.816 204.890,306.845 204.630,306.735 204.630 C 306.625 204.630,306.475 204.859,306.402 205.140 M237.325 221.007 C 237.272 234.599,237.292 235.416,237.674 235.413 C 237.961 235.411,237.995 235.356,237.791 235.227 C 237.568 235.085,237.490 231.845,237.442 220.821 L 237.381 206.597 237.325 221.007 M127.778 210.995 C 127.778 212.629,127.842 213.902,127.921 213.823 C 128.080 213.663,128.042 208.289,127.881 208.127 C 127.824 208.071,127.778 209.361,127.778 210.995 M304.700 208.796 C 304.556 209.178,304.479 209.491,304.528 209.491 C 304.577 209.491,304.779 209.178,304.977 208.796 C 305.174 208.414,305.252 208.102,305.149 208.102 C 305.047 208.102,304.845 208.414,304.700 208.796 M234.800 211.343 C 234.800 212.297,234.841 212.688,234.891 212.211 C 234.941 211.733,234.941 210.952,234.891 210.475 C 234.841 209.997,234.800 210.388,234.800 211.343 M302.894 212.731 C 302.696 213.113,302.586 213.426,302.650 213.426 C 302.714 213.426,302.927 213.113,303.125 212.731 C 303.323 212.350,303.432 212.037,303.368 212.037 C 303.305 212.037,303.091 212.350,302.894 212.731 M234.691 213.715 C 234.645 214.002,234.662 216.372,234.729 218.981 L 234.852 223.727 234.903 218.461 C 234.950 213.551,234.900 212.432,234.691 213.715 M298.885 215.161 C 298.740 215.480,298.711 215.741,298.821 215.741 C 299.013 215.741,299.359 214.791,299.218 214.650 C 299.180 214.612,299.030 214.842,298.885 215.161 M274.848 215.924 C 274.775 216.205,274.648 216.435,274.566 216.435 C 274.484 216.435,274.273 216.670,274.097 216.956 L 273.777 217.477 274.294 217.016 C 274.920 216.460,275.322 215.754,275.125 215.557 C 275.046 215.478,274.922 215.644,274.848 215.924 M301.212 216.246 C 300.830 217.258,300.989 217.303,301.459 216.317 C 301.671 215.873,301.765 215.509,301.667 215.509 C 301.570 215.509,301.365 215.841,301.212 216.246 M297.265 218.633 C 297.120 218.952,297.090 219.213,297.200 219.213 C 297.392 219.213,297.739 218.263,297.598 218.123 C 297.560 218.085,297.410 218.314,297.265 218.633 M295.644 222.106 C 295.499 222.424,295.470 222.685,295.580 222.685 C 295.772 222.685,296.118 221.736,295.977 221.595 C 295.940 221.557,295.790 221.787,295.644 222.106 M297.740 223.654 C 297.358 224.665,297.517 224.710,297.987 223.724 C 298.199 223.280,298.292 222.917,298.195 222.917 C 298.098 222.917,297.893 223.248,297.740 223.654 M294.142 225.350 C 293.931 225.794,293.837 226.157,293.934 226.157 C 294.116 226.157,294.724 224.740,294.598 224.613 C 294.559 224.574,294.354 224.906,294.142 225.350 M295.984 227.369 C 295.909 227.653,295.962 227.991,296.101 228.121 C 296.278 228.286,296.320 228.252,296.241 228.009 C 296.178 227.818,296.221 227.480,296.336 227.257 C 296.461 227.014,296.459 226.852,296.331 226.852 C 296.214 226.852,296.058 227.084,295.984 227.369 M91.294 232.639 C 91.294 234.358,91.331 235.061,91.375 234.201 C 91.420 233.342,91.420 231.936,91.375 231.076 C 91.331 230.217,91.294 230.920,91.294 232.639 M303.009 231.807 C 303.009 231.853,303.270 232.062,303.588 232.270 C 303.906 232.479,304.167 232.560,304.167 232.450 C 304.167 232.340,303.906 232.132,303.588 231.987 C 303.270 231.842,303.009 231.761,303.009 231.807 M308.102 237.714 C 308.102 237.824,308.258 237.973,308.449 238.047 C 308.711 238.147,308.807 238.623,308.841 239.981 L 308.885 241.782 308.969 240.285 C 309.067 238.525,308.931 237.833,308.451 237.649 C 308.259 237.575,308.102 237.604,308.102 237.714 M311.219 249.537 C 311.219 256.094,311.248 258.776,311.285 255.498 C 311.321 252.219,311.321 246.855,311.285 243.576 C 311.248 240.298,311.219 242.980,311.219 249.537 M180.986 248.366 C 181.287 248.628,181.643 248.843,181.777 248.843 C 182.062 248.843,182.048 248.831,181.134 248.296 L 180.440 247.889 180.986 248.366 M234.776 280.556 C 234.776 281.001,234.824 281.183,234.882 280.961 C 234.940 280.738,234.940 280.373,234.882 280.150 C 234.824 279.928,234.776 280.110,234.776 280.556 M91.435 300.694 C 91.435 311.431,91.486 320.165,91.548 320.103 C 91.701 319.950,91.709 281.447,91.556 281.294 C 91.490 281.227,91.435 289.958,91.435 300.694 M237.069 283.044 C 237.101 284.663,237.198 284.483,237.318 282.581 C 237.356 281.976,237.309 281.481,237.212 281.481 C 237.116 281.481,237.051 282.185,237.069 283.044 M161.862 302.502 C 161.817 315.627,161.746 318.975,161.516 318.845 C 161.286 318.716,161.286 318.746,161.512 318.990 C 162.030 319.548,162.041 319.183,161.979 302.525 L 161.918 285.995 161.862 302.502 M272.537 293.519 C 272.537 294.728,272.576 295.223,272.624 294.618 C 272.672 294.013,272.672 293.024,272.624 292.419 C 272.576 291.814,272.537 292.309,272.537 293.519 M310.332 298.900 L 309.915 299.653 310.392 299.074 C 310.815 298.561,311.003 298.148,310.814 298.148 C 310.778 298.148,310.561 298.487,310.332 298.900 M307.450 298.958 C 307.305 299.277,307.224 299.537,307.270 299.537 C 307.316 299.537,307.525 299.277,307.733 298.958 C 307.942 298.640,308.023 298.380,307.913 298.380 C 307.803 298.380,307.595 298.640,307.450 298.958 M125.199 300.912 C 125.500 301.174,125.856 301.389,125.990 301.389 C 126.275 301.389,126.261 301.377,125.347 300.842 L 124.653 300.435 125.199 300.912 M308.007 303.356 C 307.799 303.675,307.718 303.935,307.828 303.935 C 307.938 303.935,308.146 303.675,308.291 303.356 C 308.436 303.038,308.517 302.778,308.471 302.778 C 308.424 302.778,308.216 303.038,308.007 303.356 M131.218 304.384 C 131.518 304.647,131.874 304.861,132.009 304.861 C 132.293 304.861,132.280 304.850,131.366 304.314 L 130.671 303.908 131.218 304.384 M237.109 316.319 C 237.110 317.083,237.153 317.368,237.205 316.952 C 237.256 316.536,237.255 315.911,237.202 315.563 C 237.150 315.215,237.107 315.556,237.109 316.319 M293.098 324.421 C 292.953 324.740,292.872 325.000,292.918 325.000 C 292.964 325.000,293.173 324.740,293.381 324.421 C 293.590 324.103,293.671 323.843,293.561 323.843 C 293.451 323.843,293.243 324.103,293.098 324.421 M289.768 330.326 C 289.551 330.707,289.447 331.018,289.536 331.017 C 289.626 331.016,289.877 330.704,290.093 330.323 C 290.310 329.941,290.414 329.630,290.325 329.631 C 290.235 329.632,289.985 329.944,289.768 330.326 M104.366 332.394 C 104.666 332.656,105.022 332.870,105.157 332.870 C 105.441 332.870,105.428 332.859,104.514 332.324 L 103.819 331.917 104.366 332.394 M114.783 338.412 C 115.083 338.674,115.439 338.889,115.573 338.889 C 115.858 338.889,115.845 338.877,114.931 338.342 L 114.236 337.935 114.783 338.412 M201.261 348.958 C 201.261 353.160,201.292 354.911,201.331 352.850 C 201.369 350.790,201.369 347.352,201.331 345.211 C 201.292 343.071,201.261 344.757,201.261 348.958 M198.804 360.070 C 198.762 360.898,198.805 361.575,198.900 361.575 C 198.996 361.574,199.074 360.897,199.074 360.069 C 199.074 358.127,198.905 358.127,198.804 360.070 " stroke="none" fill="#fcfcfc" fill-rule="evenodd"></path><path id="path1" d="" stroke="none" fill="#100fcfc" fill-rule="evenodd"></path><path id="path2" d="" stroke="none" fill="#100fcfc" fill-rule="evenodd"></path><path id="path3" d="" stroke="none" fill="#100fcfc" fill-rule="evenodd"></path><path id="path4" d="" stroke="none" fill="#100fcfc" fill-rule="evenodd"></path></g></svg>